<svg width="184" height="160" viewBox="0 0 184 160" fill="none" xmlns="http://www.w3.org/2000/svg">
    <path fill-rule="evenodd" clip-rule="evenodd" d="M94.902 132.406c0-.218.007-.435.014-.653.107-3.672.536-7.357.129-11.007-.072-.582-.18-1.204-.587-1.62-.35-.352-.858-.492-1.344-.551-1.08-.129-5.284 5.262-5.32 6.135-.05.959.108 1.914.272 2.861l1.824 10.954c.407 2.429.815 4.871 1.637 7.193.236.678.643 1.446 1.358 1.52.444.045.873-.216 1.137-.573.272-.358.4-.798.494-1.234.235-1.063.307-2.157.35-3.245.121-3.258-.036-6.52.036-9.78z" fill="#E7C59B"/>
    <path fill-rule="evenodd" clip-rule="evenodd" d="M90.504 145.285s-.228-2.258 1.695-2.907c1.923-.65 3.146.905 3.146.905l-4.84 2.002z" fill="#fff"/>
    <path fill-rule="evenodd" clip-rule="evenodd" d="M94.77 143.219c-.564.085-1.143.533-1.672.771-1.745.788-3.354 1.731-5.063 2.594-.958.484-2.895 1.303-2.674 2.672.308 1.904 3.568.743 4.683.492 1.874-.418 3.84-1.038 5.57-1.871 1.61-.774 1.13-1.831.894-2.823-.129-.535-.372-1.076-.75-1.48-.315-.328-.644-.406-.987-.355z" fill="#191919"/>
    <path fill-rule="evenodd" clip-rule="evenodd" d="M124.334 128.218c-.05-.211-.107-.422-.157-.633-.88-3.566-1.459-7.23-2.839-10.635-.214-.543-.486-1.113-.994-1.403-.429-.245-.958-.244-1.444-.168-1.073.166-3.675 6.49-3.475 7.343.214.934.622 1.813 1.03 2.682 1.565 3.352 3.131 6.705 4.704 10.057 1.044 2.23 2.095 4.473 3.504 6.487.414.587 1.015 1.219 1.723 1.098.436-.075.779-.444.944-.86.157-.416.164-.875.143-1.32-.065-1.087-.286-2.159-.544-3.219-.75-3.171-1.78-6.273-2.595-9.429z" fill="#E7C59B"/>
    <path fill-rule="evenodd" clip-rule="evenodd" d="M123.548 141.807s-.829-2.112.851-3.256c1.681-1.144 3.268.026 3.268.026l-4.119 3.23z" fill="#fff"/>
    <path fill-rule="evenodd" clip-rule="evenodd" d="M127.11 138.667c-.529.235-.965.824-1.408 1.195-1.473 1.23-2.767 2.571-4.183 3.861-.793.726-2.438 2.036-1.859 3.294.808 1.753 3.639-.245 4.648-.788 1.687-.905 3.417-2.032 4.862-3.302 1.344-1.18.6-2.069.1-2.96-.265-.481-.644-.936-1.123-1.222-.386-.231-.729-.217-1.037-.078zM103.891 102.027s-1.616 3.347.808 9.349c2.417 6.003 9.502 19.85 10.653 19.651 1.159-.199 11.555-5.035 11.898-6.189.35-1.155-5.706-20.272-5.706-20.272s-4.969-8.657-5.319-8.657c-.344 0-12.334 6.118-12.334 6.118z" fill="#191919"/>
    <path fill-rule="evenodd" clip-rule="evenodd" d="M38.281 160h4.151V47.03h-4.15V160z" fill="#CBCBCB"/>
    <path fill-rule="evenodd" clip-rule="evenodd" d="M56.266 160H24.44a1.731 1.731 0 0 1 0-3.464h31.825a1.731 1.731 0 0 1 0 3.464zM161.09 160h4.147V70.579h-4.147V160z" fill="#CBCBCB"/>
    <path fill-rule="evenodd" clip-rule="evenodd" d="M179.078 160h-31.824a1.73 1.73 0 0 1-1.731-1.732 1.73 1.73 0 0 1 1.731-1.732h31.824c.951 0 1.73.776 1.73 1.732 0 .957-.779 1.732-1.73 1.732zM9.973 22.68h119.631l47.797 54.84h-123.9L9.973 22.68z" fill="#CBCBCB"/>
    <path fill-rule="evenodd" clip-rule="evenodd" d="m36.438 29.91 30.295 39.507h85.474L123.35 29.91H36.438z" fill="#fff"/>
    <path fill-rule="evenodd" clip-rule="evenodd" d="m103.085 47.253-9.574-12.05H71.03v-.716h22.83l9.781 12.321-.557.445z" fill="#CBCBCB"/>
    <path fill-rule="evenodd" clip-rule="evenodd" d="M100.084 65.446a.365.365 0 0 1-.286-.135L73.622 32.065a.357.357 0 0 1 .064-.503.356.356 0 0 1 .501.06l26.176 33.246a.362.362 0 0 1-.057.501.37.37 0 0 1-.222.077zM89.821 62.33h-14.98l-.106-.133-16.91-20.9h12.284v.716H59.324l15.861 19.601h14.636v.716z" fill="#CBCBCB"/>
    <path fill-rule="evenodd" clip-rule="evenodd" d="m53.496 22.68 45.966 54.84h8.001l-45.55-54.84h-8.417z" fill="#666"/>
    <path fill-rule="evenodd" clip-rule="evenodd" d="M101.306 54.018a.358.358 0 0 1-.286-.143L85.397 33.023a.355.355 0 0 1 .071-.5.359.359 0 0 1 .5.07l15.624 20.853a.356.356 0 0 1-.286.572z" fill="#CBCBCB"/>
    <path fill-rule="evenodd" clip-rule="evenodd" d="M7.907 18.752h-5.98A1.927 1.927 0 0 0 0 20.681v1.083a2.6 2.6 0 0 0 .573 1.629L43.26 76.54c.498.62 1.25.98 2.045.98h8.198v-2.504c0-.779-.266-1.533-.753-2.14L10.051 19.78a2.751 2.751 0 0 0-2.144-1.028zM137.821 18.752h-5.999a2.218 2.218 0 0 0-2.217 2.217v1.71l43.537 54.2c.321.405.815.642 1.337.642h7.464c.644 0 1.166-.522 1.166-1.166v-1.796c0-.483-.165-.95-.465-1.326L139.465 19.54a2.113 2.113 0 0 0-1.644-.788z" fill="#666"/>
    <path fill-rule="evenodd" clip-rule="evenodd" d="M75.002 43.078c-.408-1.07-1.394-1.739-2.274-2.397-1.68-1.265-3.253-2.657-4.914-3.947.01-.094.029-.19.032-.28.007-.022.02-.035.026-.057.572-2.037-3.24-6.873-5.306-4.947-.974.91-.455 2.84.031 3.869.383.81 1.201 2.445 2.281 2.455.567.926 1.583 1.894 2.002 2.403.829 1.007 1.702 1.96 2.552 2.949.658.77 1.216 1.677 2.124 2.167.307.168.593-.162.457-.46-.171-.38-.736-.781-.75-1.215-.036-.869.936-.075 1.315-.317.043-.025.258-.365.215-.372.157.027.3.022.443-.023.465.366.958.697 1.559.532.143-.04.264-.212.207-.36z" fill="#E7C59B"/>
    <path fill-rule="evenodd" clip-rule="evenodd" d="M95.594 59.733h20.499v-.715h-20.5v.715zM111.384 160a1.848 1.848 0 0 1-1.845-1.847v-52.061h3.689v52.061c0 1.02-.822 1.847-1.844 1.847zM141.02 160a1.848 1.848 0 0 0 1.845-1.847v-52.061h-3.689v52.061c0 1.02.822 1.847 1.844 1.847z" fill="#CBCBCB"/>
    <path fill-rule="evenodd" clip-rule="evenodd" d="M142.865 107.105h-33.326v-2.621a6.378 6.378 0 0 1 6.378-6.382h20.57a6.378 6.378 0 0 1 6.378 6.382v2.621z" fill="#666"/>
    <path fill-rule="evenodd" clip-rule="evenodd" d="M111.379 147.246h28.6v-2.54h-28.6v2.54z" fill="#CBCBCB"/>
    <path fill-rule="evenodd" clip-rule="evenodd" d="M131.664 29.724c-.05 1.06-.193 2.203-.801 2.936-.865 1.033-2.595.915-3.825.86-1.645-.077-3.475-.658-4.741-1.725-.622-.526-1.136-1.205-1.251-2.036-.043-.325-.193-2.147.458-2.112-.065-.007-.401-.728-.701-1.433a47.805 47.805 0 0 1-.572-1.338c-.021-.069-.05-.138-.079-.214v-.007c-.064.027-.128.048-.185.069-.594.18-1.28.298-1.895.277-1.966-.076-3.361-1.482-4.355-3.394-.007-.007-.007-.013-.014-.02a8.285 8.285 0 0 1-.3-.603c-.014-.02-.022-.049-.036-.07-.951-2.084-1.53-4.598-1.93-6.642a62.511 62.511 0 0 1-.215-1.115c-.079-.421-.157-.81-.222-1.15-.214-1.073-.235-1.897.708-2.597 2.46-1.807 5.027-1.89 7.908-1.544 3.232.381 3.189 3.961 5.363 5.527 2.395 1.731 2.588 4.058 3.696 6.517.672 1.504 1.244 3.055 1.809 4.6.408 1.1.801 3.413 1.623 4.238.286.29-.057.95-.443.976z" fill="#E7C59B"/>
    <path fill-rule="evenodd" clip-rule="evenodd" d="M129.709 8.887v-.046c-.079-1.24.35-2.178-.057-3.435-.372-1.128-1.087-2.124-1.945-2.936-1.681-1.596-4.14-2.717-6.492-2.423-1.802.225-3.59-.073-5.349.37-1.058.265-2.123.605-2.974 1.31-.858.701-1.437 1.68-2.302 2.372-1.387 1.106-2.253 2.8-2.181 4.607-.1.797.15 1.773.493 2.244.451.596 1.273.873 1.931 1.17.536.25 1.129.277 1.694.174.222.727.651 1.398 1.323 2.064.701.692 1.494 1.205 1.959 2.078.243.456.393.942.665 1.384.479.796 1.116 1.38 1.938 1.822.815.443 1.751.61 2.567 1.039 1.051.554 1.73 1.253 2.967 1.254 1.373 0 2.838-.142 4.004-.929.507-.346.908-.907 1.101-1.482.322-.953-.114-1.805.329-2.727.529-1.12 1.051-2.12 1.087-3.384a10.787 10.787 0 0 0-.515-3.566c-.1-.315-.215-.63-.243-.96z" fill="#191919"/>
    <path fill-rule="evenodd" clip-rule="evenodd" d="M114.094 14.595s.586-1.163 1.666-.615c1.079.549.986 4.25.986 4.25l-1.465.137-1.187-3.772z" fill="#E7C59B"/>
    <path fill-rule="evenodd" clip-rule="evenodd" d="M121.215 25.832c-.136.117-.265.25-.408.382a48.079 48.079 0 0 1-.572-1.338c-.022-.069-.05-.138-.079-.214.301-.167.58-.367.88-.562.2-.131.658-.457.887-.221 0 .007.007.013.014.02a.458.458 0 0 1 .093.236c.1.693-.343 1.253-.815 1.697z" fill="#DBB17E"/>
    <path fill-rule="evenodd" clip-rule="evenodd" d="M104.326 28.25s-3.239-2.867-3.282-3.1c-.043-.232-.408-3.275-1.53-4.228-1.13-.952-3.025-1.805-5.305.128-.859.726-2.331 2.72-.515 2.731 1.816.012 2.46-.075 2.895.228.43.303.344 1.038.737 1.644.386.606 1.173.996 1.173.996s2.416 3.853 2.416 3.982c0 .13 3.411-2.38 3.411-2.38z" fill="#E7C59B"/>
    <path fill-rule="evenodd" clip-rule="evenodd" d="M115.411 31.497c-.458-.115-4.691-5.66-9.874-4.448-5.191 1.212-7.093 4.795-6.493 7.998.272 1.418 3.725 6.06 3.725 6.06s7.708-5.684 8.109-5.858c.393-.174 4.533-3.752 4.533-3.752z" fill="#EB5976"/>
    <path fill-rule="evenodd" clip-rule="evenodd" d="M98.874 17.19a.818.818 0 0 0-1.086.402l-5.02 10.888-.157 1.61c-.029.293.329.457.53.245l1.122-1.166 5.012-10.888a.817.817 0 0 0-.4-1.092z" fill="#371005"/>
    <path fill-rule="evenodd" clip-rule="evenodd" d="M146.088 74.439s5.284 15.42.693 21.239c-4.583 5.819-10.953 3.925-21.793 4.27-10.839.348-25.482 6.119-26.87 7.735-1.38 1.616-1.38 21.586-2.187 22.624-.808 1.039-10.425 1.222-11.583.414-1.151-.807-4.011-22.486-.873-30.31 4.04-10.043 24.446-15.469 28.943-17.084 4.498-1.616 6.114-6.118 6.114-6.118l27.556-2.77z" fill="#191919"/>
    <path fill-rule="evenodd" clip-rule="evenodd" d="M150.589 77.277c-.193-1.465-.458-3.077-1.101-4.43a45.78 45.78 0 0 1-.272-1.767 88.503 88.503 0 0 1-.336-2.753c-.88-7.622-1.623-15.277-2.839-22.853.865-2.112.665-4.294.536-6.614-.143-2.681-.607-5.32-2.445-7.341-1.659-1.809-3.26-3.547-5.598-4.489-2.474-.986-4.483-1.774-7.172-1.86-2.895-.092-5.813.139-8.615.904-4.133 1.136-8.208 3.083-12.055 4.952-2.052.998-3.99 2.32-5.863 3.608-2.181 1.51-4.662 2.093-7.15 2.86-2.345.725-4.383 1.287-6.528 2.515-2.345 1.364-5.413 1.885-8 .956-2.303-.83-4.29-2.25-6.636-2.937-3.518-1.027-5.756-2.407-8.14.164-.454.49-2.651 2.483-1.095 5.598 1.116 2.235 2.307 3.24 4.559 6.31 1.323 1.813 4.161 3.33 6.22 4.195 4.362 1.83 5.699 3.259 10.547 2.544 2.502-.37 5.155-.858 7.614-1.406 2.66-.593 9.681-2.318 11.598-2.796.293.658.765 1.302 1.036 1.932.579 1.33.73 2.673 1.059 4.06.514 2.132 1.594 4.055 2.166 6.174.6 2.237.901 4.54 1.201 6.833.286 2.126.765 4.395.622 6.525-.193 2.917.651 3.7 3.203 5.829 1.209 1.005 2.867 1.307 4.305 1.842a16.362 16.362 0 0 1 5.805 3.665c1.373 1.345 2.803 3.005 4.562 3.847 1.602.763 3.411 1.686 5.227 1.295 1.422-.305 2.824-.883 4.011-1.727 1.122-.8 1.794-2.032 2.831-2.94a55.515 55.515 0 0 1 2.76-2.264c1.073-.833 2.352-1.744 2.996-2.98 1.13-2.191 1.73-5.035.987-7.451z" fill="#EB5976"/>
    <path fill-rule="evenodd" clip-rule="evenodd" d="M80.476 58.52H67.39a.358.358 0 0 1 0-.716h13.087c.2 0 .358.16.358.358a.356.356 0 0 1-.358.358z" fill="#CBCBCB"/>
</svg>
