<svg width="166" height="160" viewBox="0 0 166 160" fill="none" xmlns="http://www.w3.org/2000/svg">
    <path fill-rule="evenodd" clip-rule="evenodd" d="M119.413 16.965a1.556 1.556 0 0 1-.001-.524c.068-.43.272-.815.343-1.242.145-.884-.125-1.46-.551-2.229-.47-.842-1.149-1.542-1.873-2.165-.633-.544-1.396-1.063-1.725-1.868-.284-.699-.39-1.387-.84-2.021-.495-.699-1.17-1.155-1.911-1.553-1.312-.705-2.724-1.294-4.207-1.495-1.012-.138-2.065-.022-3.048.248-.982.271-2.002.385-2.967.732-1.107.398-2.232 1.151-2.878 2.155-3.177 4.939-1.44 9.425-1.105 10.367.38 1.065.449 1.909.328 3.046-.12 1.147-.273 2.631.922 3.266.323.172.677.28 1.004.447.477.243.884.609 1.357.862.887.476 2.04.536 2.949.086.834-.413 1.481-1.28 2.508-1.113 1.785.29 4.167.747 5.939-.06.317-.048.633-.115.911-.191.925-.248 1.454-.759 2.24-1.232.585-.347 1.254-.13 1.843-.433 1.336-.695 1.646-2.528 1.231-3.831-.15-.472-.394-.817-.469-1.252z" fill="#222"/>
    <path fill-rule="evenodd" clip-rule="evenodd" d="m98.03 156.652.014-.052c.381-1.564.42-3.193.556-4.791.068-.784.605-2.18-.116-2.784-.233-.195-.537-.285-.837-.309-1.74-.142-2.313 1.291-2.41 2.79-.081 1.26.01 2.522.006 3.783-.002 1.023-.06 2.266 1.296 2.422.719.084 1.308-.403 1.492-1.059z" fill="#E7C59B"/>
    <path fill-rule="evenodd" clip-rule="evenodd" d="M98.003 155.087c-.503-.083-1.117.138-1.628.195-1.692.191-3.307.553-4.986.817-.945.15-2.386.764-2.4 2.002-.017 1.27 1.794 1.148 2.64 1.182 1.945.076 3.875.074 5.813-.119 1.58-.157 1.46-1.134 1.53-2.041.037-.491-.022-1.018-.236-1.466-.174-.364-.433-.521-.733-.57z" fill="#191919"/>
    <path fill-rule="evenodd" clip-rule="evenodd" d="m123.486 156.652.014-.052c.381-1.564.419-3.193.556-4.791.068-.784.605-2.18-.117-2.784-.232-.195-4.839-.285-5.14-.309-1.739-.142 1.991 1.291 1.894 2.79-.082 1.26.009 2.522.006 3.783-.003 1.023-.06 2.266 1.296 2.422.719.084 1.307-.403 1.491-1.059z" fill="#E7C59B"/>
    <path fill-rule="evenodd" clip-rule="evenodd" d="M123.449 155.087c-.503-.083-1.136.05-1.628.195-1.098.325-2.117 1.1-2.597 1.524-1.037.915-1.2 1.306-1.101 1.914.143.882.565 1.148 1.412 1.181 1.943.077 2.609-.043 3.352-.119.574-.058 1.157-.261 1.374-.846.298-.795.288-2.507-.08-3.279-.174-.364-.434-.521-.732-.57z" fill="#191919"/>
    <mask id="7tp2961cna" style="mask-type:alpha" maskUnits="userSpaceOnUse" x="83" y="65" width="51" height="88">
        <path d="M132.678 135.469c-.615-5.464-3.382-27.319-3.689-30.825-.307-3.505-2.42-24.742-3.156-28.969-.738-4.227-2.582-9.524-2.582-9.524l-16.292 2.41.017.991-11.768-3.877s-1.218 3.35-2.287 9.382c-.837 4.718-3.928 19.072-5.534 35.567-.89 9.145-2.869 21.443-3.074 26.186-.205 4.742-1.127 10.701.41 11.896 1.537 1.195 9.716 3.732 13.097 3.834 3.382.104 7.499-.576 7.806-1.607.308-1.03.599-25.361 1.478-30.928.257-1.623.735-4.766 1.283-8.4.468 6.759.997 14.09 1.277 16.957.573 5.877.573 20.516 1.803 21.65 1.23 1.134 7.48 1.443 10.759 1.237 3.28-.206 9.94-2.186 10.862-2.743.922-.556.205-7.772-.41-13.237z" fill="#fff"/>
    </mask>
    <g mask="url(#7tp2961cna)" fill-rule="evenodd" clip-rule="evenodd">
        <path d="M95.208 65.675s-1.218 3.35-2.288 9.382c-.836 4.718-3.927 19.072-5.533 35.567-.89 9.146-2.869 21.443-3.074 26.186-.205 4.742-1.127 10.701.41 11.896 1.537 1.195 9.716 3.732 13.097 3.834 3.382.104 7.499-.576 7.806-1.607.308-1.03.599-25.361 1.478-30.928s4.363-28.969 4.363-28.969l-.615-20.207-15.644-5.154z" fill="#666"/>
        <path d="M107.469 98.046s1.62 24.64 2.193 30.516c.574 5.877.574 20.516 1.803 21.65 1.23 1.134 7.481 1.443 10.76 1.237 3.278-.206 9.939-2.186 10.861-2.743.923-.556.205-7.772-.41-13.237-.614-5.464-3.381-27.319-3.688-30.825-.308-3.505-2.421-24.742-3.158-28.969-.736-4.227-2.581-9.524-2.581-9.524l-16.292 2.41.512 29.485z" fill="#666"/>
        <path d="m86.515 151.537-.613-.057c.022-.232 2.169-23.391 3.537-34.708 1.369-11.323 9.167-52.055 9.246-52.464l.604.117c-.079.41-7.874 41.12-9.24 52.422-1.367 11.308-3.513 34.457-3.534 34.69zM92.641 153.96l-.61-.076c.039-.318 3.95-31.975 5.317-42.219 1.368-10.24 5.283-44.977 5.323-45.326l.611.068c-.04.351-3.957 35.095-5.325 45.34-1.367 10.241-5.276 41.896-5.316 42.213zM101.239 157.219l-.614-.04c.01-.147.959-14.909 1.728-31.57.768-16.671 4.776-57.9 4.817-58.315l.612.061c-.041.414-4.047 41.628-4.816 58.283-.768 16.666-1.718 31.434-1.727 31.581zM115.023 158.157c-.032-.313-3.145-31.573-3.145-43.512 0-11.922-.71-48.595-.718-48.964l.615-.012c.007.37.717 37.049.717 48.976 0 11.908 3.111 43.137 3.142 43.451l-.611.061zM121.686 157.762c-.025-.151-2.448-15.266-3.662-30.413-1.214-15.144-1.842-60.735-1.848-61.194l.615-.009c.006.46.634 46.03 1.845 61.154 1.212 15.122 3.632 30.212 3.656 30.363l-.606.099zM128.171 153.955c-.04-.387-4.008-38.84-4.92-53.828-.91-14.965-3.874-33.21-3.903-33.393l.606-.1c.03.182 2.998 18.458 3.911 33.455.911 14.975 4.878 53.415 4.917 53.802l-.611.064z" fill="#fff"/>
    </g>
    <path fill-rule="evenodd" clip-rule="evenodd" d="M74.664 33.238s-2.823.176-2.334 1.209c1.067 2.258 2.798 5.889 2.867 5.84.099-.07 3.168-2.5 3.168-2.5l-3.701-4.55z" fill="#E7C59B"/>
    <path fill-rule="evenodd" clip-rule="evenodd" d="M74.66 33.238s-1.612-2.178-2.21-2.434c-1.383-.593-3.932-.052-3.919.824.013.783 3.796 2.819 3.796 2.819l1.853-.409.48-.8zM113.876 25.73c1.358 1.798-2.058 3.99-3.436 4.284-1.068.234-2.446-.154-3.403-.592-.662-.292-2.346-1.582-1.496-2.514a.489.489 0 0 1 .618-.064c-.079-.316-.157-.626-.222-.938-.14-.635-.26-1.271-.338-1.923 0-.006-.007-.011-.002-.025-.004-.055-.012-.098-.016-.147-.004-.043-.014-.099-.017-.141a.174.174 0 0 0-.01-.055c-.884-.11-1.721-.438-2.408-1.064-1.581-1.402-2.113-3.031-2.579-5.038-.294-1.238-.482-2.457-.46-3.682a3.421 3.421 0 0 1 .006-.335c.002-.148.015-.305.029-.454.008-.063.009-.125.023-.188.046-.475.134-.953.266-1.434.329-1.568 1.105-2.854 2.723-3.742 1.642-.896 4.336-1.312 6.129-.563 1.222.511 2.396 1.646 2.934 2.86.271.594.531 1.195.778 1.796 0 0 .989-.215 1.288.501.717 1.72-1.439 4.714-1.439 4.714s.231 2.917.411 4.535c.139 1.31.307 2.613.44 3.918.011.067.02.116.025.178.062.008.115.054.156.113z" fill="#E7C59B"/>
    <path fill-rule="evenodd" clip-rule="evenodd" d="M108.123 25.097c-.647.389-1.411.694-2.186.81-.14-.634-.261-1.27-.341-1.925a.174.174 0 0 1 .034-.013c-.013-.002-.023-.01-.036-.012-.004-.052-.014-.097-.018-.148.002-.043-.009-.095-.014-.14.332-.143.601-.077 1.015-.124.693-.073 1.372-.324 1.915-.756.421-.34 1.265-1.216 1.481-.193.21.985-1.132 2.068-1.85 2.501z" fill="#D3AE7F"/>
    <path fill-rule="evenodd" clip-rule="evenodd" d="m113.664 25.243-7.716.723s-4.444.328-8.338 2.236c-3.894 1.907-3.521 25.984-3.623 27.89-.103 1.908-1.492 5.718.873 11.4.704 1.69 6.239 2.278 13.705 2.23 9.853-.065 14.05-.473 14.986-1.47 2.766-2.944 1.12-15.017.71-17.646-.411-2.629 2.566-18.592 1.204-20.614-1.46-2.165-11.801-4.749-11.801-4.749z" fill="#EB5976"/>
    <path fill-rule="evenodd" clip-rule="evenodd" d="M140.451 78.661s.123 1.884 1.451 3.689c1.256 1.706 3.305.663 2.613-1.856-.303-1.104-1.622-2.802-1.622-2.802s-2.201-6.14-2.273-6.098c-.106.06-3.401 2.17-3.401 2.17l3.232 4.897z" fill="#E7C59B"/>
    <path fill-rule="evenodd" clip-rule="evenodd" d="M125.47 29.992s2.492 2.59 4.746 7.744c2.255 5.156 5.636 13.3 6.763 16.083 1.127 2.784 6.593 15.747 6.696 16.984.103 1.238-2.049 2.887-3.279 3.505-1.229.619-3.616 1.444-5.292 1.135-1.676-.31-8.538-19.665-9.274-21.417-.737-1.753-3.402-4.021-4.016-4.64-.615-.618-2.869-3.417-1.947-6.039.922-2.62 2.459-7.776 2.459-7.776l3.144-5.579z" fill="#EB5976"/>
    <path fill-rule="evenodd" clip-rule="evenodd" d="M105.957 25.966s1.113 11.9 2 11.938c.887.04 5.717-12.66 5.717-12.66s-2.832-.755-3.025-.716c-.192.039-4.692 1.438-4.692 1.438z" fill="#E7C59B"/>
    <path fill-rule="evenodd" clip-rule="evenodd" d="M97.613 28.202s-2.445 1.468-4.122 3.555c-1.677 2.088-10.284 18.557-10.284 18.944 0 .386 1.306 6.59 1.921 7.316.615.725 2.536.97 3.305.732C89.2 58.51 98.5 48.227 98.5 48.227l.308-19.74-1.195-.285z" fill="#EB5976"/>
    <path fill-rule="evenodd" clip-rule="evenodd" d="M87.666 49.464s-7.594-13.13-8.147-13.609c-1.157-1.005-7.072 3.737-7.07 5.553.001.878 8.454 18.426 11.4 19.113 2.315.538 4.585-1.772 4.585-1.772l-.768-9.285z" fill="#EB5976"/>
    <path fill-rule="evenodd" clip-rule="evenodd" d="M115.111 10.914a.232.232 0 0 0-.065.03c-.41-.968-.902-1.806-1.698-2.498-.962-.84-2.213-2.1-3.475-2.41-1.706-.414-4.122-.49-5.808.402-.502-.037-1.081.304-1.477.531-.936.535-1.858 1.248-2.436 2.19-.63 1.02-.706 2.501-.554 3.656.028.222.216.43.46.394.697-.082 1.576-.96 1.978-1.541.217-.32.369-.697.463-1.083.122-.02.244-.042.364-.094.453-.201.893-.506 1.271-.82.291-.238.575-.65.698-1.08.197.233.427.44.666.595.511.329.868.402 1.442.495.848.136 1.361.75 2.186.987.712.201 1.02.284 1.577.826.531.52.974.933 1.728 1.05 1.035.16 2.58-.214 2.982-1.292.067-.19-.086-.421-.302-.338z" fill="#222"/>
    <path fill-rule="evenodd" clip-rule="evenodd" d="m164.456 96.16-24.93 10.958a1.457 1.457 0 0 1-1.923-.758l-2.127-4.899c-2.819-6.49.126-14.05 6.576-16.886l4.245-1.865c6.451-2.836 13.966.126 16.784 6.616l2.128 4.9a1.473 1.473 0 0 1-.753 1.934z" fill="#191919"/>
    <path fill-rule="evenodd" clip-rule="evenodd" d="M145.682 80.34a.632.632 0 0 0-.256.055l-4.655 2.046a.648.648 0 0 0-.331.848l.778 1.793a.642.642 0 0 0 .844.332l4.655-2.047a.647.647 0 0 0 .331-.848l-.778-1.792a.64.64 0 0 0-.588-.387zm-3.876 6.366a1.868 1.868 0 0 1-1.714-1.129l-.778-1.792a1.88 1.88 0 0 1-.028-1.44c.183-.468.535-.837.992-1.038l4.656-2.046a1.862 1.862 0 0 1 2.462.97l.778 1.792a1.888 1.888 0 0 1-.964 2.478l-4.656 2.047c-.24.105-.494.158-.748.158z" fill="#191919"/>
    <path fill-rule="evenodd" clip-rule="evenodd" d="M32.769 6.074c1.064-1.741 3.01-3.323 5.161-3.345.905-.007 1.887.475 2.082 1.413.846-.353 1.981-.292 2.752-.088.887.222 1.415.9 2.329 1.108.721.164 1.446.18 2.126.488.786.356-.102 2.058.3 2.832 1.608 3.093-1.472 5.74-2.546 6.098-2.24.753-3.808 2.89-6.025 3.772-1.687.672-3.974.815-5.808.719 0 .08-.001.162-.012.235-.032.127-.174.236-.292.117-.731-.699-.73-2.132-.901-3.068-.259-1.406-.278-2.867-.473-4.289-.102-.78-.231-1.54-.188-2.334.083-1.477.748-2.43 1.495-3.658z" fill="#371005"/>
    <path fill-rule="evenodd" clip-rule="evenodd" d="M31.224 26.332c-1.496 1.685 1.721 4.15 3.07 4.564 1.045.316 2.45.044 3.447-.311.678-.237 2.461-1.375 1.692-2.38-.14-.179-.404-.722-.31-1.032.189-.615.362-1.245.494-1.889 0-.006.008-.011.004-.024.007-.049.021-.097.03-.145.005-.044.02-.097.027-.14.003-.018.011-.03.013-.048.89-.04 1.753-.299 2.495-.863 1.686-1.267 2.35-2.84 2.981-4.805.396-1.209.683-2.41.763-3.63a3.54 3.54 0 0 0 .027-.572c.006-.074.004-.144.004-.22 0-.124-.006-.244-.01-.37a9.146 9.146 0 0 0-.144-1.269c-.2-1.585-.866-2.936-2.405-3.951-1.562-1.038-4.214-1.671-6.062-1.082-1.258.408-2.522 1.441-3.159 2.605a48.63 48.63 0 0 0-.924 1.726s-.97-.292-1.325.39c-.858 1.662 1.043 4.819 1.043 4.819s-.471 2.887-.778 4.486c-.252 1.293-.528 2.577-.768 3.866-.016.067-.03.115-.04.176-.063.002-.119.043-.165.099z" fill="#E7C59B"/>
    <path fill-rule="evenodd" clip-rule="evenodd" d="M37.008 26.184c.613.442 1.35.81 2.112.99.192-.62.365-1.243.499-1.89a.12.12 0 0 0-.032-.015c.011 0 .023-.008.035-.01.008-.05.023-.094.03-.145.003-.044.017-.095.025-.14-.317-.169-.59-.126-1-.207-.684-.131-1.34-.438-1.846-.915-.391-.374-1.16-1.317-1.46-.315-.29.964.957 2.156 1.637 2.647z" fill="#D3AE7F"/>
    <path fill-rule="evenodd" clip-rule="evenodd" d="M34.408 8.702c1.208-1.349 2.78-1.888 4.564-1.918 1.05-.021 1.859.451 2.859.666.854.186 1.696.414 2.48.82.712.37 1.98 1.14 2.233 2.064.072.018.134.059.159.138.24.77-.1 1.399-1.003 1.475-1.805.158-2.22-2.469-4.162-2.038-.612.134-1.1.627-1.755.717-.612.09-1.083-.122-1.672-.29-.591-.17-1.282-.33-1.86-.028-1.106.582-1.212 1.994-1.317 3.1-.02.203-.012.435-.207.567-.46.31-.877-.364-1.062-.695-.12-.209-.267-.407-.355-.633-.133-.34-.284-.575-.297-.955-.013-.38.075-.758.206-1.112.259-.697.696-1.328 1.19-1.878z" fill="#371005"/>
    <path fill-rule="evenodd" clip-rule="evenodd" d="M48.018 4.757c-.496-.227-1.038-.317-1.595-.336a2.27 2.27 0 0 1-.061-.045c-.223-.613-.64-1.018-1.34-1.835C43.74 1.041 42.06.348 40.13.083c-5.786-.794-11.247 4.239-9.894 10.235.059.261.205.567.353.875-.05.068-.101.132-.15.201-.232.332-.562.95-.702 1.556-.181.598-.241 1.237.136 1.64a.416.416 0 0 0 .404.106c.015-.003.029-.013.044-.018a.551.551 0 0 0 .215-.013c.914-.22 1.542-1.039 2.312-1.52a25.758 25.758 0 0 1 3.405-1.764c2.087-.903 4.25-1.61 6.421-2.275 1.066-.326 2.135-.642 3.201-.966.864-.263 1.982-.437 2.703-1.015 1.026-.824.47-1.896-.56-2.368z" fill="#EB5976"/>
    <path fill-rule="evenodd" clip-rule="evenodd" d="M31.889 9.267a.361.361 0 0 1-.51-.307c-.07-1.06.087-3.501 2.765-4.639 2.193-.931 4.186.408 5.023 1.111a.365.365 0 0 1-.088.61l-7.19 3.225z" fill="#F87690"/>
    <path fill-rule="evenodd" clip-rule="evenodd" d="M40.336 27.985s.759-1.315-2.181-1.315-5.61-1.202-6.504-1.335c-.893-.134-1.585.91-1.585.91s7.282 2.243 7.743 2.243c.461 0 2.527-.503 2.527-.503z" fill="#fff"/>
    <path fill-rule="evenodd" clip-rule="evenodd" d="M62.05 57.081s-1.422 5.76-5.726 7.679c-4.304 1.92-9.914-3.106-9.914-3.106s5.105-7.004 6.818-7.175c1.713-.17 8.822 2.602 8.822 2.602z" fill="#555656"/>
    <path fill-rule="evenodd" clip-rule="evenodd" d="M39.215 27.667s6.622.085 10.09 3.95c2.507 2.795 6.507 13.145 6.507 13.145L51.92 58.525s-2.613.67-3.177.464c-.564-.207-9.527-31.322-9.527-31.322z" fill="#555656"/>
    <path fill-rule="evenodd" clip-rule="evenodd" d="m40.703 157.035-.013-.052c-.355-1.57-1.071-7.524-1.182-9.123-.054-.786 4.335-1.546 4.407-.045.06 1.261-.385 6.644-.403 7.905-.015 1.023.023 2.266-1.336 2.4-.72.071-1.3-.425-1.473-1.085z" fill="#E7C59B"/>
    <path fill-rule="evenodd" clip-rule="evenodd" d="M40.75 155.472c.504-.075 1.115.157 1.625.222 1.69.22 3.298.608 4.973.901.942.164 2.372.803 2.367 2.042-.006 1.27-1.815 1.118-2.661 1.137-1.945.044-3.876.008-5.81-.217-1.576-.183-1.442-1.158-1.495-2.066-.03-.492.038-1.017.26-1.461.18-.362.442-.514.741-.558z" fill="#191919"/>
    <path fill-rule="evenodd" clip-rule="evenodd" d="M21.864 156.614a1.497 1.497 0 0 1-.01-.054c-.279-1.585-.614-7.593-.647-9.196-.017-.787 4.276-.931 4.275.572 0 1.263-.67 6.242-.748 7.501-.064 1.021-.087 2.265-1.45 2.332-.723.035-1.279-.488-1.42-1.155z" fill="#E7C59B"/>
    <path fill-rule="evenodd" clip-rule="evenodd" d="M22.014 155.214c.5-.094 1.136.027 1.631.162 1.105.303 2.138 1.057 2.626 1.471 1.056.894 1.227 1.282 1.14 1.891-.127.887-.543 1.16-1.389 1.21-1.94.116-2.609.011-3.353-.051-.575-.048-1.162-.24-1.392-.819-.313-.789-.338-2.5.016-3.279.167-.368.423-.53.72-.585zM47.024 69.521s3.77 6.56 3.866 19.243c.075 9.838-3.935 61.65-4.172 62.3-.999 2.745-7.762 2.668-9.068-.039-.474-.982-3.878-63.048-3.878-63.048l-.674-16.87s1.212-4.31 3.117-4.896c1.906-.586 10.809 3.31 10.809 3.31z" fill="#191919"/>
    <path fill-rule="evenodd" clip-rule="evenodd" d="M21.295 69.93s-4.062 8.541-4.06 23.39c0 10.65 1.052 54.426 1.15 55.772.335 4.64 8.884 3.824 9.455.671.34-1.875 7.988-60.204 7.988-60.204l-.087-19.386-14.446-.243z" fill="#191919"/>
    <path fill-rule="evenodd" clip-rule="evenodd" d="M30.402 26.097c7.058 2.015 8.146 1.347 9.374 1.655 3.704.927 6.447 2.576 8.017 6.752 2.078 5.52 1.902 26.445 2.752 31.88a390.17 390.17 0 0 0 1.706 10.182c1.306 7.208-6.312 6.879-16.759 6.19-9.832-.648-17.45 2.198-18.977-1.55-1.921-4.717 1.089-11.377 1.153-20.723.09-12.991-.176-26.558 2.69-31.237 1.69-2.76 7.67-3.826 10.044-3.15z" fill="#666"/>
    <path fill-rule="evenodd" clip-rule="evenodd" d="M40.935 47.092c-.242.037-38.316 5.571-39.048 6.045-1.55 1.005-.985 4.591.737 4.878.607.101 38.886-5.693 39.562-5.964 2.304-.923 1.802-5.429-1.25-4.959z" fill="#D2D2D2"/>
    <path fill-rule="evenodd" clip-rule="evenodd" d="M40.825 54.16c-.245-.007-38.683-1.537-39.49-1.204-1.706.704-1.798 4.334-.157 4.931.579.211 39.267 1.522 39.98 1.378 2.433-.485 2.754-5.007-.333-5.105z" fill="#D2D2D2"/>
    <path fill-rule="evenodd" clip-rule="evenodd" d="M39.433 41.077C39.21 41.18 4.6 57.964 3.941 58.537c-.974.847.553 3.628 1.548 3.234.573-.226 35.082-17.036 35.663-17.478 1.2-.912-.323-3.855-1.719-3.216z" fill="#D2D2D2"/>
    <path fill-rule="evenodd" clip-rule="evenodd" d="M26.017 58.12c.975-.13 1.884.35 2.74.747 1.64.761 3.337 1.392 4.989 2.128.066-.046.131-.099.2-.139.012-.014.017-.03.03-.044 1.31-1.27 6.52-.347 5.905 2.016-.375 1.442-2.62 1.627-3.808 1.508-1.584-.16-3.002-.91-4.55-1.218-1.1-.22-2.176-.494-3.27-.734-.851-.188-1.765-.24-2.504-.73-.255-.17-.12-.52.16-.538.358-.024.89.237 1.225.073.67-.33-.327-.746-.298-1.134.004-.04.173-.343.194-.316a.77.77 0 0 1-.161-.344c-.467-.206-.92-.446-1.04-.973-.029-.124.054-.285.188-.303z" fill="#E7C59B"/>
    <path fill-rule="evenodd" clip-rule="evenodd" d="M30.697 26.772c1.46 1.392-1.845 5.18-4.458 12.14-2.613 6.958-3.458 12.138-3.612 12.757-.153.619 8.915 5.103 10.683 6.495 1.767 1.392-.655 6.223-2.876 7.987-1.236.982-4.502-1.57-8.883-2.265-4.38-.696-11.636-3.214-10.76-9.666 1.692-12.448 5.895-21.991 8.532-24.974 3.212-3.634 9.913-3.866 11.374-2.474z" fill="#555656"/>
    <path fill-rule="evenodd" clip-rule="evenodd" d="M47.261 56.875c.606.523 14.966 1.102 15.503.329.538-.773 8.466-24.268 7.553-25.02-.336-.276-15.11-1.453-16.856-.818-1.608.585-6.868 24.934-6.2 25.51z" fill="#D2D2D2"/>
    <path fill-rule="evenodd" clip-rule="evenodd" d="M67.466 47.173c.184-.618.398-1.461-.118-1.883-1.438-1.175-2.332 1.891-2.592 2.767-.13.438-.07.971.143 1.376a.827.827 0 0 0 1.403.117 6.521 6.521 0 0 0 1.078-2.092c.025-.087.055-.183.086-.285z" fill="#E7C59B"/>
    <path fill-rule="evenodd" clip-rule="evenodd" d="M41.004 47.649c.048-.113.144-.225.281-.215a.86.86 0 0 1 .174.031c.012 0 .022-.006.033-.003.572.16.967.671 1.193 1.198.274.64.296 1.64.047 2.296-.132.35-.424.562-.798.535-.8-.056-.978-1.015-1.032-1.657-.063-.76-.209-1.442.102-2.185zM40.8 57.036c.031.378.05 1.994.803 1.67.582-.252.924-1.29.927-1.86.005-.591-.072-1.283-.41-1.787-.306-.454-.96-.632-1.25-.061-.293.575-.121 1.42-.07 2.038zM40.087 41.442c.508.133.9.976 1.052 1.42.227.664-.221 1.447-.816.6-.215-.306-1.463-2.341-.236-2.02z" fill="#AEAEAE"/>
</svg>
