<svg width="117" height="160" viewBox="0 0 117 160" fill="none" xmlns="http://www.w3.org/2000/svg">
    <path fill-rule="evenodd" clip-rule="evenodd" d="M45.066 26.565s3.256 2.74 4.717 8.682c1.154 4.693 3.87 17.359 4.028 17.513.158.154 2.756 3.925 3.94 6.444 1.185 2.518 4.196 10.315 4.196 10.315l-2.291 1.495s-8.451-9.833-10.347-14.4c-1.377-3.319-2.686-7.473-2.686-7.473l-1.557-22.576z" fill="#E7C59B"/>
    <path fill-rule="evenodd" clip-rule="evenodd" d="M62.824 70.972s2.859 1.294 3.033 3.179c.174 1.884-.503 2.618-1.87 2.36-1.853-.35-3.47-3.982-3.47-3.982l-3.708-5.202 4.396.3 1.62 3.345z" fill="#E7C59B"/>
    <path fill-rule="evenodd" clip-rule="evenodd" d="m112.89 109.946-49.243 24.429c-3.526 1.749-7.807.319-9.562-3.194L37.917 98.826c-1.756-3.513-.32-7.78 3.206-9.528l49.243-24.43c3.525-1.748 7.807-.318 9.562 3.195l16.168 32.355c1.756 3.513.32 7.78-3.206 9.528z" fill="#EB5976"/>
    <path fill-rule="evenodd" clip-rule="evenodd" d="M69.785 72.38c-.472 0-.942.11-1.377.326l-7.77 3.854c-.74.368-1.293 1-1.556 1.781a3.056 3.056 0 0 0 .164 2.356l.525 1.049 13.313-6.605-.524-1.049a3.075 3.075 0 0 0-1.788-1.55 3.115 3.115 0 0 0-.987-.161zM58.918 84.279l-1.369-2.74a4.925 4.925 0 0 1-.264-3.797 4.948 4.948 0 0 1 2.508-2.872l7.77-3.855a4.977 4.977 0 0 1 3.811-.263 4.954 4.954 0 0 1 2.883 2.5l1.369 2.74-16.708 8.287z" fill="#EB5976"/>
    <path fill-rule="evenodd" clip-rule="evenodd" d="M45.618 13.266c-.139-1.41-.347-2.77-.353-4.186-.013-1.474.196-3.236-.373-4.628-.607-1.48-2.363-2.89-4.013-2.852a.948.948 0 0 0-.328-.422C39.868.656 38.914.411 38.093.24 36.38-.1 34.498-.144 32.86.536 29.519 1.927 28.078 4.85 27.25 8.08c-.379.9-.891 1.656-1.409 2.474-.884 1.404-2.01 2.606-2.932 3.985-.929 1.392-1.807 3.248-2.13 5.118-1.699 2.255-3.291 4.446-3.392 7.487-.088 2.619 1.27 5.395 4.082 5.78 1.497.206 3.298.043 4.681-.6.924-.421 1.864-.95 2.857-1.202 1.01-.252 2.135.044 3.153.126 2.982.227 5.56-.604 7.538-2.638.031.17.29.233.423.12.998-.8 1.737-2.104 2.294-3.217.638-1.279 1.39-2.563 1.933-3.878 1.093-2.62 1.549-5.547 1.27-8.368z" fill="#222"/>
    <path fill-rule="evenodd" clip-rule="evenodd" d="M4.352 153.685a1.5 1.5 0 0 1 .013-.052c.434-1.581 2.653-7.272 3.324-8.761.329-.731 4.673.706 4.016 2.088-.553 1.162-3.55 5.777-4.173 6.901-.506.911-1.071 2.045-2.367 1.509-.687-.283-.973-1.009-.813-1.685z" fill="#E7C59B"/>
    <path fill-rule="evenodd" clip-rule="evenodd" d="M5.153 152.307c.492.176.935.68 1.365.984 1.425 1.013 2.696 2.138 4.073 3.209.775.604 1.763 1.868 1.161 2.976-.617 1.137-2.182.128-2.959-.264-1.783-.899-3.517-1.863-5.16-2.999-1.342-.927-.75-1.735-.36-2.578.209-.455.523-.894.938-1.185.337-.238.649-.248.942-.143zM36.622 95.174c-.582-.314-2.315 15.111-5.952 24.082-2.434 6-12.238 31.824-13.463 32.267-2.677.965-13.269-1.575-15.797-7.713-.732-1.777 10.146-27.859 11.41-31.007 1.263-3.147 6.176-32.423 6.176-32.423s8.333-5.667 10.24-4.722c1.907.944 9.688 8.185 9.668 9.129-.02.944-2.282 10.387-2.282 10.387z" fill="#191919"/>
    <path fill-rule="evenodd" clip-rule="evenodd" d="M43.702 14.375c-.373 2.07-.828 3.745-2.37 5.256-.683.674-1.523 1.052-2.42 1.215 0 .02-.013.032-.013.05 0 .045-.006.102-.006.146 0 .05-.006.1-.013.151.007.012 0 .018 0 .025a19.827 19.827 0 0 1-.24 1.97c-.05.328.291.838.462 1.002.922.906-.74 2.304-1.397 2.637-.966.491-2.357.963-3.469.788-1.428-.227-5.048-2.267-3.753-4.175.038-.063.088-.113.152-.125 0-.064.012-.114.018-.183.064-1.335.17-2.663.247-4.004.088-1.656.17-4.634.17-4.634s-2.369-2.921-1.725-4.709c.266-.743 1.296-.58 1.296-.58.22-.629.455-1.253.701-1.869.487-1.26 1.63-2.48 2.856-3.067 1.801-.85 4.588-.579 6.32.252 1.711.812 2.577 2.084 2.994 3.652.133.403.246.812.316 1.215 0 .013.006.031.006.045.026.125.05.245.063.37.013.076.026.145.026.22.012.051.018.101.018.152.026.144.032.29.032.435.09 1.24-.038 2.492-.271 3.765z" fill="#E7C59B"/>
    <path fill-rule="evenodd" clip-rule="evenodd" d="M36.35 22.489c.685.36 1.486.63 2.288.705.11-.652.2-1.305.247-1.975a.148.148 0 0 0-.035-.01c.012-.004.023-.012.035-.015.001-.052.01-.1.01-.152-.003-.044.005-.097.007-.143-.347-.127-.62-.046-1.047-.071-.715-.038-1.427-.257-2.007-.667-.45-.323-1.364-1.167-1.53-.115-.163 1.012 1.272 2.04 2.032 2.443z" fill="#D3AE7F"/>
    <path fill-rule="evenodd" clip-rule="evenodd" d="m56.972 155.493-.024-.048c-.724-1.472-2.835-7.203-3.321-8.761-.238-.766 3.974-2.55 4.398-1.08.357 1.235 1.172 6.673 1.45 7.926.225 1.016.554 2.24-.774 2.692-.704.239-1.402-.116-1.729-.729z" fill="#E7C59B"/>
    <path fill-rule="evenodd" clip-rule="evenodd" d="M56.656 153.931c.486-.192 1.152-.106 1.677-.161 1.74-.179 3.442-.172 5.186-.276.98-.057 2.561.24 2.845 1.468.291 1.26-1.552 1.534-2.395 1.751-1.935.501-3.875.919-5.862 1.15-1.62.188-1.713-.809-1.98-1.696-.145-.48-.2-1.017-.083-1.509.096-.399.322-.612.612-.727zM42.793 67.309s5.04.217 8.377 18.156c1.83 9.845 10.507 62 10.423 62.699-.356 2.955-13.238 5.636-15.178 3.262-.705-.862-14.389-62.704-14.389-62.704l-2.792-16.57s.203-4.555 1.972-5.583c1.768-1.029 11.587.74 11.587.74z" fill="#191919"/>
    <path fill-rule="evenodd" clip-rule="evenodd" d="M30.639 23.316s1.658 1.18 4.698 1.062c3.04-.118 3.39-.758 3.39-.758s4.839 1.105 6.633 3.245c2.212 2.637 2.804 10.35 2.844 13.143.083 5.881.002 12.552.239 16.895s2.13 11.594 2.92 16.237c.79 4.643 2.765 6.768-3.554 7.712s-5.844-1.259-11.847.472c-6.003 1.731-9.794 1.968-13.507 1.652-3.712-.314-7.476-2.02-7.784-4.223-.897-6.425 4.295-20.727 3.9-25.547-.394-4.82.596-21.567 3.306-25.554 2.161-3.182 8.762-4.336 8.762-4.336z" fill="#666"/>
    <path fill-rule="evenodd" clip-rule="evenodd" d="M44.066 7.317a1.54 1.54 0 0 0-.082-.353c.17-.925-.828-1.693-1.416-2.285-.36-.36-.935-.617-1.396-.806-.36-.145-.626-.34-.954-.27-.367-.215-.626-.593-1.075-.75-1.169-.41-3.077-.359-4.201.138a9.434 9.434 0 0 0-3.248 2.418c-.644.755-1.087 1.272-1.99 1.738-.323.164-.79.276-.986.604-.07.12.006.251.126.29 1.542 2.178 4.126.831 5.94-.353 1.365-.894 2.944-1.045 4.284-1.951.461-.315.802-.58 1.004-.958.127.46.98.92 1.277 1.083.448.246.947.384 1.396.624.48.252.638.617.885 1.076.037.07.126.126.209.12.22-.012.24-.17.227-.365z" fill="#222"/>
    <path fill-rule="evenodd" clip-rule="evenodd" d="M39.435 34.426C39.194 34.5 1.322 45.806.649 46.395c-1.425 1.246-.311 4.77 1.483 4.8.631.01 38.673-11.59 39.32-11.965 2.203-1.277 1.015-5.737-2.017-4.804z" fill="#D2D2D2"/>
    <path fill-rule="evenodd" clip-rule="evenodd" d="M39.589 34.976c.03-.12.111-.249.253-.259a.9.9 0 0 1 .181.006c.012-.001.02-.01.033-.008.605.074 1.085.53 1.393 1.027.375.602.548 1.605.393 2.304-.083.37-.347.629-.731.659-.822.063-1.147-.875-1.298-1.513-.18-.757-.43-1.42-.224-2.216z" fill="#AEAEAE"/>
    <path fill-rule="evenodd" clip-rule="evenodd" d="M41.884 46.997c-.25-.037-39.336-5.957-40.197-5.712-1.822.519-2.328 4.18-.72 4.97.567.28 39.932 6.007 40.678 5.943 2.54-.214 3.38-4.752.24-5.201z" fill="#D2D2D2"/>
    <path fill-rule="evenodd" clip-rule="evenodd" d="M41.533 49.903c-.011.386-.176 2.022.63 1.779.624-.187 1.09-1.198 1.159-1.775.071-.597.071-1.306-.218-1.854-.26-.494-.907-.749-1.27-.204-.363.548-.283 1.423-.301 2.054z" fill="#AEAEAE"/>
    <path fill-rule="evenodd" clip-rule="evenodd" d="M42.197 40.524c-.244.063-38.278 10.634-39.048 11.09-1.137.672-.093 3.735.984 3.52.62-.124 38.557-10.74 39.224-11.077 1.378-.698.367-3.921-1.16-3.533z" fill="#D2D2D2"/>
    <path fill-rule="evenodd" clip-rule="evenodd" d="M42.787 41.008c.49.224.734 1.14.808 1.612.11.706-.484 1.41-.934.454-.162-.345-1.058-2.61.126-2.066z" fill="#AEAEAE"/>
    <path fill-rule="evenodd" clip-rule="evenodd" d="M25.28 26.119c3.379.708 2.436 4.366 1.248 10.662-1.188 6.296-2.9 12.738-2.9 12.738s1.738.405 5.056 1.113c3.317.708 10.219 2.574 10.219 2.574l-.423 3.25s-14.798.263-17.721-.455c-2.922-.718-3.87-3.008-3.474-7.212.263-2.797 2.079-14.421 2.526-16.336.448-1.915 2.092-7.042 5.47-6.334z" fill="#E7C59B"/>
    <path fill-rule="evenodd" clip-rule="evenodd" d="M31.219 52.56c.947-.348 7.687.646 7.687.646l.899.222s5.69-1.759 6.374.659c.683 2.416-2.35 2.795-3.576 2.815-1.914.03-2.5-.492-4.12-.446-1.152.032-2.907-.18-4.057-.17-.897.007-1.824.162-2.676-.157-.294-.109-.238-.487.039-.57.353-.105.945.034 1.243-.205.598-.481-.495-.667-.554-1.058-.006-.04.095-.38.122-.358a.79.79 0 0 1-.24-.304c-.514-.099-1.021-.235-1.262-.73-.056-.117-.01-.295.12-.343z" fill="#E7C59B"/>
</svg>
